<svg xmlns:xlink="http://www.w3.org/1999/xlink" xmlns="http://www.w3.org/2000/svg" version="1.0" viewBox="0 0 1000 533" width="1000"  height="533" ><path d="M512.2 1.2c.4 1 5.3 1.4 18.9 1.8l18.4.5.3 237.5c.2 265.7 1 239.7-7.2 255.5-4.9 9.5-14.7 20-22.1 23.5-10.8 5.2-23.2 3.4-27.8-3.9l-2.2-3.6v-240l22-.3c19-.2 22.2-.4 23.2-1.8.9-1.2.9-2.2.2-3.5-.9-1.8-2.6-1.9-23.5-1.9h-22.5l.2-40.2c.1-40.3-.4-46.8-3.1-36.6-4.7 17.5-20.6 32-38.4 35.1l-6.6 1.1V241c0 9.1-.3 18.2-.6 20.2l-.7 3.8-22.1.2-22.1.3v6l22.5.5 22.5.5.5 108.5c.6 116.4.4 112 5.6 125l1.7 4.1-3.7 3.8c-2.1 2.1-6.3 5.1-9.3 6.6-7.3 3.5-15.7 3.3-19.9-.6-6.1-5.6-5.8-1.5-6.5-93.4-.5-80.6-.6-84.4-2.7-93.3-5.3-23.4-11.9-36.9-24.2-49.3-12.8-12.9-27.5-20-47.8-22.9-12.5-1.9-37.7-.8-47.2 1.9-17.8 5.2-32.2 15.6-39.1 28.3-3.2 5.9-3.4 6.9-3.4 15.8 0 7.8.4 10.2 2.2 13.5 4.5 8.5 11.4 12.5 21.2 12.5 11.9 0 21.6-6 24-14.7 1.6-5.5 1.3-9.3-.9-16.5-3.5-11.2-2.3-23.4 3.1-30.9 2.6-3.7 9.9-7.4 15.9-8.2 2.5-.3 7.7-.2 11.5.4 18.2 2.5 31 15.1 37.1 36.4 1.5 5 1.8 11.6 2.2 40.4l.3 34.3-2.2 2.4c-4.9 5.3-17.8 8.2-49.4 11.3-34.4 3.5-43.7 5.6-59 13.4-11.3 5.9-23.9 18.3-28.8 28.7-7.6 15.9-10.3 39.7-6.3 55 4 15.4 13.5 28.3 26.6 35.8l5.5 3.2H197l.2-232.8.3-232.7 19.5.1c15.7 0 21.7.5 30.6 2.2 38 7.5 63.3 26.3 78.4 58.4 7.1 15.1 11.3 33.7 12.6 55.5.5 8.6 1 11.3 2 11.3 1.2 0 1.4-10.7 1.2-65.8l-.3-65.7H.5l-.3 65.8c-.2 52.6 0 65.8 1 65.5.8-.3 1.4-2.8 1.5-6.9 2-55 22.4-92 60.6-109.3 17.4-8 33.1-10.9 59.2-11l19-.1.3 232.7.2 232.7-13.7.3c-9.8.2-13.8.6-14.1 1.5-.3 1 14.4 1.3 71.1 1.3 70.7 0 71.6 0 80.4 2.2 7.6 1.9 11.5 2.3 27.8 2.3 16.7 0 20-.3 27.5-2.3 19.5-5.3 35.9-16.8 41.8-29.2l2.6-5.7 2.2 6.8c2.9 9.3 6.3 14.7 12.9 20.7 7.3 6.7 14.3 9.4 26.1 10 16.2.8 28.1-3.5 38.6-14 3.2-3.2 5.8-5.4 5.8-4.9s2 3.2 4.6 6c11.8 13.1 35.1 17.6 55.7 10.7l7.7-2.6h89.3c85.2 0 89.5.1 96.5 2 39.1 10.4 79.3-.4 108.5-29.3 7.9-7.7 19.7-22.9 19.7-25.3 0-2.7-1.5-1.3-6 5.4-2.5 3.7-8.8 11-14 16.3-21.8 22.2-47.5 32.9-78.5 32.9-19.3 0-31.2-3.3-42.4-11.8-14-10.6-21.7-26.4-25.5-52.4-2.1-14.2-3.8-47-3.4-66.3l.3-16 88-.5 88-.5-.2-9c-.1-5-1.2-13.4-2.3-18.9-8-37.4-28.3-67.2-56.5-82.8l-5-2.8 39 .3 39 .2.3 127.7.2 127.7-13.7.3c-9.8.2-13.8.6-14.1 1.5-.3 1 10.6 1.3 52.2 1.3 33.7 0 52.6-.4 52.6-1 0-1.5-3.5-2-16.5-2.3l-12-.2-.3-104-.2-104 2.6-7.5c3.6-10.4 10.6-23.6 15.5-29.3 5.5-6.4 11.5-9.8 18.8-10.4 15.7-1.4 21.2 7.7 14 23.1-5.7 12.3-2.9 22.5 7.8 27.7 6.2 3.1 18.8 3.4 24.4.6 4.7-2.3 10.3-7.9 12.6-12.6 2.8-5.6 2.5-20.9-.6-27.8-3-6.8-10.1-13.4-17.7-16.4-5.3-2.1-7.5-2.4-20.9-2.4-13.3 0-15.7.3-20.7 2.3-14.7 5.9-24.7 17.3-33.4 38.2l-2.3 5.5-.1-20.8V265h-66.8c-65.2 0-67.1-.1-74.8-2.1-10-2.7-33.1-3.7-44.3-1.9-10.3 1.6-24 6.1-33.5 11-45.9 23.5-73.9 78.4-69.5 136.3 3.6 49.1 29.7 91.6 68.5 111.9l7.9 4.1-38.3-.6-38.3-.5-4.4-2.6c-2.8-1.7-5.5-4.4-7.2-7.4l-2.8-4.7-.5-254-.5-254-42.8-.3c-34.1-.2-42.8 0-42.5 1zM742 263c32.9 4.1 45.6 29.6 48.6 97.7l.7 16.3H664v-7.4c0-10.9 1.9-31.5 4-44.1 7-41 23.4-59.4 56-62.5 4.1-.4 8-.8 8.5-.9.6 0 4.9.4 9.5.9zM362 436.2v55.3l-3 6.4c-11.3 23.9-50.4 37-74.6 25.1-13.8-6.8-20.9-21.4-22.9-47-.8-11 1-32.6 3.5-42.7 4.1-15.9 11.4-27.7 21.1-34.2 7.6-5.1 13.1-6.7 28.4-8.6 23.8-2.9 34.1-4.7 40-7 3.3-1.2 6.3-2.3 6.8-2.4.4 0 .7 24.8.7 55.1zm188 69.3V524h-25.5l7.2-7.5c5.9-6.1 8.3-9.5 12.5-18.5 2.9-6 5.4-10.9 5.6-11 .1 0 .2 8.3.2 18.5z" fill="#FFFFFF"></path><path d="M63 320c0 1.9.6 2 18.1 2h18l-18 12C65.6 344.3 63 346.3 63 348.5v2.5l20.7-.2c18.9-.3 20.8-.5 21.1-2.1.3-1.6-1.1-1.7-17.8-1.7H68.8L87 334.8c24.4-16.4 24.5-16.2-3.2-16.6C63.5 318 63 318 63 320zM82.5 365c-25.7 10.6-25.7 10-.3 20.2 10.6 4.2 20.1 8 21.1 8.4 1.3.4 1.7.1 1.7-1.4s-1.5-2.6-6.2-4.5l-6.3-2.5-.3-9.9-.3-9.9 6.3-2.6c6.1-2.5 9.1-5.9 5.1-5.7-1 0-10.3 3.6-20.8 7.9zm6.5 10c0 5.8-.3 8-1.2 7.9-.7 0-5.6-1.7-10.8-3.9-7.6-3-9.1-4-7.5-4.6 1.1-.4 5.6-2.3 10-4 4.4-1.8 8.3-3.3 8.8-3.4.4 0 .7 3.6.7 8zM63 394.9c0 2.2-.9 1.8 25.5 9.6l11 3.3L95 409c-2.5.6-9.9 2.7-16.5 4.6-6.6 2-12.8 3.8-13.7 4-1.1.3-1.8 1.5-1.8 2.8 0 2 1.5 2.7 17.5 7.2s20.4 6.3 15.8 6.5c-1 0-8.8 2.2-17.3 4.8-13 4-15.5 5.1-15.8 6.8-.3 1.9 1.1 1.6 20.5-4.2 17.8-5.3 20.8-6.5 21.1-8.3.4-2.3 1.6-1.8-23-8.9-7-2-12.6-3.8-12.5-4 .2-.1 7.9-2.5 17.2-5.3 9.3-2.7 17.3-5.4 17.8-5.9 2.3-2.3-1.2-4-19.4-9.5-10.7-3.3-20-6.1-20.6-6.4-.8-.2-1.3.4-1.3 1.7zM63 455c0 2 .5 2 20.7 1.8 18.9-.3 20.8-.5 21.1-2.1.3-1.6-1.2-1.7-20.7-1.7-20.5 0-21.1.1-21.1 2zM82.5 471c-25.5 10.5-25.6 9.8 1 20.7 11 4.5 20.3 8.2 20.8 8.2.4.1.7-.8.7-1.8 0-1.4-1.7-2.6-6.2-4.4l-6.3-2.5-.3-10-.3-10 6.3-2.5c6.1-2.4 9.1-5.8 5.1-5.6-1 0-10.3 3.6-20.8 7.9zm6.5 10c0 5.8-.3 8-1.2 7.9-.7 0-5.6-1.7-10.8-3.9-7.6-3-9.1-4-7.5-4.6 1.1-.4 5.6-2.3 10-4 4.4-1.8 8.3-3.3 8.8-3.4.4 0 .7 3.6.7 8zM63 513c0 14.4.2 17 1.5 17 1.2 0 1.5-1.5 1.5-7.5V515h19.6c18.1 0 19.5-.1 19.2-1.8-.3-1.5-2.2-1.7-19.6-2L66 511v-7.5c0-6-.3-7.5-1.5-7.5-1.3 0-1.5 2.6-1.5 17z" fill="#FFFFFF"></path></svg>